<svg width="20" height="17" viewBox="0 0 20 17" fill="none" xmlns="http://www.w3.org/2000/svg">
<path d="M13.3657 13.6611L14.4046 14.6919L15.4436 13.6405L14.4046 12.6097L13.3657 13.6611Z" fill="#1769FF"/>
<path d="M13.3657 13.6405L12.306 12.6097L11.267 13.6611L12.306 14.6919L13.3657 13.6405Z" fill="#1769FF"/>
<path d="M12.3059 15.7615L13.3656 16.8129L14.4046 15.7615L13.3656 14.71L12.3059 15.7615Z" fill="#1769FF"/>
<path d="M17.0852 5.87572C16.6696 5.48446 16.2125 5.11379 15.693 4.76372C15.1735 4.39305 14.6333 4.08416 14.093 3.79587C14.8618 3.32224 15.6722 2.91038 16.5657 2.56031C17.4592 2.21023 18.3527 1.90135 19.2878 1.65423L18.9761 0.233345C18.4566 0.377493 17.9164 0.542234 17.3761 0.727568C16.8359 0.912901 16.2748 1.13942 15.7553 1.36594C15.2151 1.61305 14.6748 1.88075 14.1761 2.16905C13.6567 2.45735 13.1995 2.74564 12.7632 3.07512L12.5346 4.64016C12.971 4.86668 13.4489 5.11379 13.9476 5.3815C14.4463 5.6492 14.9242 5.95809 15.3605 6.30816C15.8177 6.65824 16.2125 7.0495 16.545 7.46135C16.8774 7.8732 17.106 8.32624 17.2307 8.77928C16.8774 8.96461 16.4826 9.10876 16.067 9.21172C15.6515 9.33528 15.2151 9.41765 14.7787 9.47942C14.3632 9.56179 13.9268 9.60298 13.4904 9.62357C13.0541 9.64416 12.6177 9.66476 12.2021 9.66476C11.7242 9.66476 11.3294 9.60298 11.0177 9.50002C10.706 9.39705 10.4567 9.12935 10.2697 8.77928C10.3736 8.4292 10.4775 7.99676 10.6021 7.46135C10.7268 6.92594 10.8099 6.34935 10.893 5.73157L9.58396 5.56683C9.48007 6.26698 9.37617 6.88476 9.25149 7.39957C9.1476 7.89379 8.98137 8.32624 8.7528 8.65572C8.52423 8.9852 8.23332 9.25291 7.8593 9.41765C7.48527 9.58239 7.00735 9.66476 6.38398 9.66476H4.72165C4.0775 9.66476 3.47491 9.76772 2.95543 9.99424C2.43595 10.2002 1.97881 10.4885 1.60479 10.8385C1.23077 11.1886 0.93986 11.5593 0.732069 11.9711C0.545058 12.383 0.441162 12.7742 0.441162 13.1655C0.441162 13.8245 0.648953 14.3599 1.06453 14.7511C1.48012 15.163 2.14505 15.3483 3.05933 15.3483H7.3606C7.56839 15.3483 7.7554 15.3483 7.92163 15.3689C8.08787 15.3689 8.23332 15.4101 8.37877 15.4513C8.52423 15.4925 8.69046 15.5542 8.85669 15.6366C9.02293 15.719 9.23072 15.8219 9.45929 15.9661L10.2073 14.6482C9.85409 14.4216 9.56318 14.2569 9.31383 14.1334C9.06448 14.0098 8.83591 13.9274 8.62812 13.8656C8.42033 13.8039 8.23332 13.7627 8.02553 13.7627C7.83852 13.7421 7.60995 13.7421 7.3606 13.7421H3.55803C2.93465 13.7421 2.47751 13.6597 2.18661 13.5156C1.8957 13.3508 1.70869 13.1655 1.62557 12.8978C1.85414 12.3624 2.24894 11.9711 2.80998 11.724C3.37101 11.4769 4.01516 11.3534 4.72165 11.3534H6.38398C7.15281 11.3534 7.79696 11.2504 8.29566 11.0239C8.79436 10.8179 9.18916 10.5296 9.52162 10.1384C9.87487 10.5914 10.2489 10.9003 10.706 11.0856C11.1424 11.271 11.6411 11.3534 12.2021 11.3534C13.6151 11.3534 14.7372 11.271 15.5683 11.0856C16.3995 10.9003 17.0021 10.6944 17.3969 10.4679C17.6878 10.3031 17.9372 10.0148 18.1242 9.62357C18.332 9.23231 18.4151 8.84105 18.4151 8.44979C18.4151 7.99676 18.2904 7.54372 18.041 7.11127C17.8125 6.67883 17.5008 6.26698 17.0852 5.87572Z" fill="#1769FF"/>
</svg>
