<svg width="17" height="16" viewBox="0 0 17 16" fill="none" xmlns="http://www.w3.org/2000/svg">
<path d="M8.65588 1.9897C8.60137 1.62758 8.53907 1.27714 8.47287 0.934496C8.40668 0.591848 8.34438 0.280349 8.28208 0L7.31254 0.221943C7.36316 0.467248 7.42546 0.755384 7.49165 1.09025C7.55785 1.42511 7.62014 1.77554 7.68244 2.14545C7.74085 2.51146 7.79147 2.88136 7.8343 3.25516C7.87324 3.62507 7.8966 3.96382 7.8966 4.26753C7.8966 4.46222 7.89271 4.62576 7.88102 4.76204C7.86934 4.89832 7.84598 5.0307 7.80704 5.1592C7.65908 5.26433 7.48386 5.35778 7.28918 5.43955C7.0906 5.52132 6.88423 5.5914 6.66618 5.64981C6.44813 5.70821 6.22229 5.75494 5.98478 5.78998C5.74726 5.82503 5.51753 5.8406 5.29559 5.8406C4.6648 5.8406 4.15861 5.70821 3.78482 5.44344C3.41102 5.17867 3.22023 4.76982 3.22023 4.21302C3.22023 3.83533 3.29031 3.38366 3.43049 2.86579C3.57066 2.34403 3.74588 1.78333 3.95614 1.1837L3.23191 0.915028C2.97103 1.66652 2.76466 2.32845 2.6128 2.90083C2.46095 3.47321 2.38307 4.00276 2.38307 4.49337C2.38307 5.3461 2.62838 5.98078 3.11509 6.38962C3.60181 6.79846 4.28321 7.00093 5.1593 7.00093C5.44744 7.00093 5.73168 6.97757 6.01203 6.93474C6.29238 6.89191 6.55326 6.8335 6.79857 6.76342C7.04387 6.69333 7.26971 6.61156 7.47218 6.51811C7.67466 6.42466 7.85377 6.32732 8.00173 6.22219C8.16527 6.10927 8.30155 5.97688 8.40668 5.82113C8.5157 5.66538 8.60137 5.49406 8.66367 5.31495C8.72597 5.13194 8.77269 4.94115 8.79605 4.74257C8.82331 4.54009 8.83499 4.34151 8.83499 4.13904C8.83499 3.80418 8.81941 3.45374 8.78437 3.08384C8.75711 2.71393 8.71039 2.35182 8.65588 1.9897Z" fill="#3E3E3E"/>
<path d="M6.41303 3.07996L5.61092 2.26617L4.80881 3.07996L5.61092 3.88597L6.41303 3.07996Z" fill="#3E3E3E"/>
<path d="M7.6473 9.18925C7.47597 8.96341 7.2735 8.7882 7.03987 8.6597C6.80625 8.5351 6.55316 8.46891 6.2767 8.46891C6.02361 8.46891 5.79388 8.54678 5.58751 8.69864C5.37725 8.8505 5.18256 9.04129 4.99177 9.27102C4.80098 9.50075 4.61408 9.74995 4.42718 10.0186C4.24028 10.2873 4.04559 10.5365 3.83533 10.7662C3.62896 10.9959 3.39923 11.1867 3.15393 11.3386C2.90862 11.4904 2.63216 11.5683 2.31677 11.5683C2.07147 11.5683 1.86121 11.5489 1.68599 11.506C1.51077 11.4671 1.3667 11.3892 1.24989 11.2841C1.13308 11.1751 1.04741 11.0271 0.992902 10.8324C0.93839 10.6377 0.911134 10.3924 0.911134 10.0848V5.01517L0 5.06189V10.0887C0 10.5793 0.0428311 10.992 0.132387 11.3269C0.221943 11.6618 0.362117 11.9304 0.549017 12.1368C0.73981 12.3432 0.977328 12.4911 1.26936 12.5846C1.55749 12.678 1.90793 12.7248 2.31677 12.7248C2.69446 12.7248 3.02933 12.643 3.31357 12.4795C3.60171 12.3159 3.86648 12.094 4.11178 11.8097C4.32594 11.9966 4.56735 12.1602 4.83213 12.3003C5.0969 12.4405 5.35778 12.5612 5.62255 12.6586C5.88733 12.7559 6.13653 12.826 6.37404 12.8766C6.61156 12.9233 6.81404 12.9506 6.98536 12.9506C7.19173 12.9506 7.37473 12.8883 7.52659 12.7598C7.67845 12.6352 7.80305 12.4756 7.90039 12.2809C7.99773 12.0862 8.06782 11.8759 8.11065 11.6501C8.15738 11.4243 8.17684 11.2101 8.17684 11.0076C8.17684 10.6416 8.13012 10.3068 8.03667 9.99915C7.94711 9.68375 7.81862 9.41509 7.6473 9.18925ZM7.25014 11.4982C7.22288 11.6267 7.18005 11.7552 7.12164 11.8837C6.90749 11.8604 6.68944 11.8292 6.47139 11.7825C6.25334 11.7396 6.03529 11.6773 5.82503 11.6034C5.61477 11.5294 5.41229 11.4398 5.2215 11.3425C5.03071 11.2412 4.86328 11.1283 4.71531 11.0037C4.83602 10.8324 4.95283 10.6572 5.07354 10.4781C5.19424 10.299 5.31495 10.1393 5.43565 9.99136C5.55636 9.84729 5.68096 9.72659 5.80167 9.63314C5.92626 9.53969 6.04697 9.49296 6.17546 9.49296C6.30396 9.49296 6.42856 9.52801 6.56094 9.5942C6.69333 9.66039 6.81014 9.75774 6.91917 9.88234C7.02819 10.0069 7.11775 10.1705 7.18783 10.3691C7.25792 10.5676 7.29297 10.7896 7.29297 11.0427C7.28907 11.2179 7.27739 11.3658 7.25014 11.4982Z" fill="#3E3E3E"/>
<path d="M14.0408 7.88089L14.8546 7.07878L14.0408 6.27667L13.2387 7.07878L14.0408 7.88089Z" fill="#3E3E3E"/>
<path d="M16.7508 7.89267L15.7579 8.08346C15.8396 8.51567 15.9097 8.97902 15.9642 9.47742C16.0187 9.97582 16.0421 10.4898 16.0265 11.0271C15.937 11.1011 15.8241 11.1673 15.6878 11.2218C15.5515 11.2763 15.4035 11.323 15.2439 11.3542C15.0842 11.3892 14.9207 11.4126 14.7533 11.4321C14.5858 11.4515 14.4301 11.4593 14.2782 11.4593H13.4878C13.4645 10.9999 13.4022 10.5793 13.2931 10.2055C13.1841 9.83175 13.04 9.50857 12.857 9.2399C12.674 8.97123 12.456 8.76487 12.2068 8.6208C11.9537 8.47673 11.6694 8.40275 11.3502 8.40275C11.1126 8.40275 10.8751 8.47284 10.6415 8.60912C10.4079 8.7454 10.2015 8.9323 10.0185 9.17371C9.83549 9.41512 9.68753 9.69157 9.57072 10.0109C9.45391 10.3301 9.39939 10.6728 9.39939 11.0349C9.39939 11.3464 9.44222 11.6034 9.52789 11.8098C9.61355 12.0161 9.73425 12.1758 9.89 12.2887C10.0458 12.4055 10.2327 12.4873 10.4546 12.534C10.6726 12.5807 10.918 12.608 11.1866 12.608C11.4163 12.608 11.6461 12.6041 11.8719 12.5963C12.0978 12.5885 12.3314 12.5729 12.5689 12.5535C12.5611 12.5924 12.5572 12.6391 12.5533 12.6975C12.5494 12.7559 12.5416 12.8066 12.5261 12.8416C12.3937 13.0441 12.234 13.2271 12.051 13.3984C11.868 13.5697 11.6811 13.7177 11.4864 13.8384C11.2917 13.9591 11.1048 14.0565 10.918 14.1265C10.7311 14.1966 10.5714 14.2317 10.439 14.2317C10.3144 14.2317 10.1548 14.22 9.96399 14.1927C9.77319 14.1655 9.51621 14.0954 9.18913 13.9747L8.90878 14.6327C9.37603 14.8469 9.75762 14.9948 10.0458 15.0805C10.3339 15.1623 10.5792 15.2012 10.7817 15.2012C10.9374 15.2012 11.1438 15.1506 11.4008 15.0455C11.6578 14.9403 11.9186 14.7807 12.1873 14.5665C12.456 14.3524 12.7052 14.0798 12.9349 13.7566C13.1646 13.4335 13.3282 13.048 13.4255 12.6041H14.2821C14.691 12.6041 15.0609 12.5652 15.3957 12.4873C15.7306 12.4094 15.9954 12.3082 16.1862 12.1797C16.4626 12.0006 16.6651 11.7553 16.8014 11.4438C16.9338 11.1323 17 10.7974 17 10.4392C17 10.0459 16.9805 9.62538 16.9377 9.17371C16.8948 8.72982 16.8325 8.30151 16.7508 7.89267ZM11.2684 11.5372C11.0464 11.5372 10.8634 11.5255 10.7272 11.4983C10.5909 11.471 10.4819 11.4321 10.404 11.3776C10.3261 11.323 10.2755 11.253 10.2482 11.1712C10.221 11.0894 10.2054 10.996 10.1976 10.8908C10.1976 10.7195 10.2288 10.5482 10.2872 10.373C10.3456 10.1978 10.4273 10.042 10.5286 9.90573C10.6298 9.76945 10.7466 9.65653 10.879 9.57087C11.0114 9.48521 11.1555 9.44238 11.3034 9.44238C11.4514 9.44238 11.6032 9.48131 11.7551 9.56308C11.907 9.64485 12.0432 9.76945 12.1678 9.94077C12.2924 10.1121 12.3898 10.3263 12.4677 10.5871C12.5455 10.848 12.5923 11.1517 12.6078 11.5022C12.1912 11.5255 11.7434 11.5372 11.2684 11.5372Z" fill="#3E3E3E"/>
<path d="M14.0408 6.27673L14.8546 5.47463L14.0408 4.67252L13.2387 5.47463L14.0408 6.27673Z" fill="#3E3E3E"/>
</svg>
